<mxfile host="Electron" modified="2023-08-17T10:56:45.121Z" agent="Mozilla/5.0 (Macintosh; Intel Mac OS X 10_15_7) AppleWebKit/537.36 (KHTML, like Gecko) draw.io/21.6.8 Chrome/114.0.5735.289 Electron/25.5.0 Safari/537.36" etag="mcDAst_3eKzYXPJt_S5Z" version="21.6.8" type="device">
  <diagram name="Page-1" id="4Bgoo3D6VYdwiwDV1hbo">
    <mxGraphModel dx="954" dy="619" grid="1" gridSize="10" guides="1" tooltips="1" connect="1" arrows="1" fold="1" page="1" pageScale="1" pageWidth="827" pageHeight="1169" math="0" shadow="0">
      <root>
        <mxCell id="0" />
        <mxCell id="1" parent="0" />
        <mxCell id="Cp0hF8P1XbObhAQc_Zf8-23" value="" style="rounded=1;whiteSpace=wrap;html=1;strokeWidth=2;" parent="1" vertex="1">
          <mxGeometry x="220" y="100" width="470" height="370" as="geometry" />
        </mxCell>
        <mxCell id="avfFTuaBObW6_8dbNeOo-6" style="edgeStyle=orthogonalEdgeStyle;rounded=0;orthogonalLoop=1;jettySize=auto;html=1;fontStyle=1;strokeWidth=2;strokeColor=#660000;fontSize=11;" edge="1" parent="1" source="Cp0hF8P1XbObhAQc_Zf8-28" target="Cp0hF8P1XbObhAQc_Zf8-37">
          <mxGeometry relative="1" as="geometry" />
        </mxCell>
        <mxCell id="avfFTuaBObW6_8dbNeOo-14" value="6" style="edgeLabel;html=1;align=center;verticalAlign=middle;resizable=0;points=[];fontSize=13;fontStyle=1" vertex="1" connectable="0" parent="avfFTuaBObW6_8dbNeOo-6">
          <mxGeometry x="-0.6863" y="1" relative="1" as="geometry">
            <mxPoint x="-3" y="9" as="offset" />
          </mxGeometry>
        </mxCell>
        <mxCell id="avfFTuaBObW6_8dbNeOo-8" style="edgeStyle=orthogonalEdgeStyle;rounded=0;orthogonalLoop=1;jettySize=auto;html=1;entryX=1;entryY=0.5;entryDx=0;entryDy=0;fontStyle=1;strokeWidth=2;strokeColor=#660000;fontSize=11;" edge="1" parent="1" source="Cp0hF8P1XbObhAQc_Zf8-28" target="Cp0hF8P1XbObhAQc_Zf8-29">
          <mxGeometry relative="1" as="geometry">
            <Array as="points">
              <mxPoint x="453" y="160" />
              <mxPoint x="453" y="337" />
            </Array>
          </mxGeometry>
        </mxCell>
        <mxCell id="avfFTuaBObW6_8dbNeOo-16" value="5" style="edgeLabel;html=1;align=center;verticalAlign=middle;resizable=0;points=[];fontSize=13;fontStyle=1" vertex="1" connectable="0" parent="avfFTuaBObW6_8dbNeOo-8">
          <mxGeometry x="-0.1018" y="1" relative="1" as="geometry">
            <mxPoint x="-2" as="offset" />
          </mxGeometry>
        </mxCell>
        <mxCell id="Cp0hF8P1XbObhAQc_Zf8-28" value="&lt;p style=&quot;margin:0px;margin-top:4px;text-align:center;&quot;&gt;&lt;b&gt;AddressManager&lt;/b&gt;&lt;/p&gt;" style="verticalAlign=top;align=left;overflow=fill;fontSize=12;fontFamily=Helvetica;html=1;whiteSpace=wrap;fillColor=#d5e8d4;strokeColor=#82b366;" parent="1" vertex="1">
          <mxGeometry x="500" y="121" width="160" height="60" as="geometry" />
        </mxCell>
        <mxCell id="Cp0hF8P1XbObhAQc_Zf8-29" value="&lt;p style=&quot;margin:0px;margin-top:4px;text-align:center;&quot;&gt;&lt;b&gt;AddressValidator&lt;/b&gt;&lt;/p&gt;&lt;hr size=&quot;1&quot;&gt;&lt;div style=&quot;height:2px;&quot;&gt;..;&lt;/div&gt;" style="verticalAlign=top;align=left;overflow=fill;fontSize=12;fontFamily=Helvetica;html=1;whiteSpace=wrap;fillColor=#d5e8d4;strokeColor=#82b366;" parent="1" vertex="1">
          <mxGeometry x="245" y="307" width="160" height="60" as="geometry" />
        </mxCell>
        <mxCell id="Cp0hF8P1XbObhAQc_Zf8-34" value="Application Components" style="text;html=1;align=center;verticalAlign=middle;resizable=0;points=[];autosize=1;strokeColor=none;fillColor=none;" parent="1" vertex="1">
          <mxGeometry x="370" y="60" width="150" height="30" as="geometry" />
        </mxCell>
        <mxCell id="avfFTuaBObW6_8dbNeOo-5" style="edgeStyle=orthogonalEdgeStyle;rounded=0;orthogonalLoop=1;jettySize=auto;html=1;fontStyle=1;strokeWidth=2;strokeColor=#660000;fontSize=11;" edge="1" parent="1" source="Cp0hF8P1XbObhAQc_Zf8-36" target="avfFTuaBObW6_8dbNeOo-3">
          <mxGeometry relative="1" as="geometry">
            <Array as="points">
              <mxPoint x="180" y="253" />
              <mxPoint x="180" y="530" />
            </Array>
          </mxGeometry>
        </mxCell>
        <mxCell id="avfFTuaBObW6_8dbNeOo-11" value="3" style="edgeLabel;html=1;align=center;verticalAlign=middle;resizable=0;points=[];fontSize=13;fontStyle=1" vertex="1" connectable="0" parent="avfFTuaBObW6_8dbNeOo-5">
          <mxGeometry x="-0.3366" y="1" relative="1" as="geometry">
            <mxPoint x="-2" as="offset" />
          </mxGeometry>
        </mxCell>
        <mxCell id="Cp0hF8P1XbObhAQc_Zf8-36" value="&lt;p style=&quot;margin:0px;margin-top:4px;text-align:center;&quot;&gt;&lt;b&gt;UserRepository&lt;/b&gt;&lt;/p&gt;" style="verticalAlign=top;align=left;overflow=fill;fontSize=12;fontFamily=Helvetica;html=1;whiteSpace=wrap;fillColor=#d5e8d4;strokeColor=#82b366;" parent="1" vertex="1">
          <mxGeometry x="245" y="223" width="170" height="60" as="geometry" />
        </mxCell>
        <mxCell id="avfFTuaBObW6_8dbNeOo-7" style="edgeStyle=orthogonalEdgeStyle;rounded=0;orthogonalLoop=1;jettySize=auto;html=1;fontStyle=1;strokeWidth=2;strokeColor=#660000;fontSize=11;" edge="1" parent="1" source="Cp0hF8P1XbObhAQc_Zf8-37" target="avfFTuaBObW6_8dbNeOo-3">
          <mxGeometry relative="1" as="geometry">
            <Array as="points">
              <mxPoint x="720" y="264" />
              <mxPoint x="720" y="530" />
            </Array>
          </mxGeometry>
        </mxCell>
        <mxCell id="avfFTuaBObW6_8dbNeOo-15" value="7" style="edgeLabel;html=1;align=center;verticalAlign=middle;resizable=0;points=[];fontSize=13;fontStyle=1" vertex="1" connectable="0" parent="avfFTuaBObW6_8dbNeOo-7">
          <mxGeometry x="-0.2592" y="-1" relative="1" as="geometry">
            <mxPoint x="-1" y="-35" as="offset" />
          </mxGeometry>
        </mxCell>
        <mxCell id="Cp0hF8P1XbObhAQc_Zf8-37" value="&lt;p style=&quot;margin:0px;margin-top:4px;text-align:center;&quot;&gt;&lt;b&gt;AddressRepository&lt;/b&gt;&lt;/p&gt;" style="verticalAlign=top;align=left;overflow=fill;fontSize=12;fontFamily=Helvetica;html=1;whiteSpace=wrap;fillColor=#d5e8d4;strokeColor=#82b366;" parent="1" vertex="1">
          <mxGeometry x="515" y="234" width="130" height="60" as="geometry" />
        </mxCell>
        <mxCell id="avfFTuaBObW6_8dbNeOo-4" style="edgeStyle=orthogonalEdgeStyle;rounded=0;orthogonalLoop=1;jettySize=auto;html=1;exitX=0.5;exitY=1;exitDx=0;exitDy=0;fontStyle=1;strokeWidth=2;strokeColor=#660000;fontSize=11;" edge="1" parent="1" source="WDYi7oCFt3PgykhrvLu6-1" target="Cp0hF8P1XbObhAQc_Zf8-36">
          <mxGeometry relative="1" as="geometry" />
        </mxCell>
        <mxCell id="avfFTuaBObW6_8dbNeOo-10" value="2" style="edgeLabel;html=1;align=center;verticalAlign=middle;resizable=0;points=[];fontSize=13;fontStyle=1" vertex="1" connectable="0" parent="avfFTuaBObW6_8dbNeOo-4">
          <mxGeometry x="-0.2558" relative="1" as="geometry">
            <mxPoint x="-2" as="offset" />
          </mxGeometry>
        </mxCell>
        <mxCell id="avfFTuaBObW6_8dbNeOo-12" style="edgeStyle=orthogonalEdgeStyle;rounded=0;orthogonalLoop=1;jettySize=auto;html=1;entryX=0;entryY=0.25;entryDx=0;entryDy=0;fontStyle=1;strokeWidth=2;strokeColor=#660000;fontSize=11;exitX=1;exitY=0.25;exitDx=0;exitDy=0;" edge="1" parent="1" source="WDYi7oCFt3PgykhrvLu6-1" target="Cp0hF8P1XbObhAQc_Zf8-28">
          <mxGeometry relative="1" as="geometry" />
        </mxCell>
        <mxCell id="avfFTuaBObW6_8dbNeOo-13" value="4" style="edgeLabel;html=1;align=center;verticalAlign=middle;resizable=0;points=[];fontSize=13;fontStyle=1" vertex="1" connectable="0" parent="avfFTuaBObW6_8dbNeOo-12">
          <mxGeometry x="0.0222" relative="1" as="geometry">
            <mxPoint y="-1" as="offset" />
          </mxGeometry>
        </mxCell>
        <mxCell id="WDYi7oCFt3PgykhrvLu6-1" value="&lt;p style=&quot;margin:0px;margin-top:4px;text-align:center;&quot;&gt;&lt;b&gt;CustomerManager&lt;/b&gt;&lt;/p&gt;&lt;hr size=&quot;1&quot;&gt;&lt;div style=&quot;height:2px;&quot;&gt;...&lt;/div&gt;" style="verticalAlign=top;align=left;overflow=fill;fontSize=12;fontFamily=Helvetica;html=1;whiteSpace=wrap;fillColor=#d5e8d4;strokeColor=#82b366;" parent="1" vertex="1">
          <mxGeometry x="250" y="120" width="160" height="60" as="geometry" />
        </mxCell>
        <mxCell id="WDYi7oCFt3PgykhrvLu6-3" value="&lt;p style=&quot;margin:0px;margin-top:4px;text-align:center;&quot;&gt;&lt;b&gt;UserInterests&lt;/b&gt;&lt;/p&gt;" style="verticalAlign=top;align=left;overflow=fill;fontSize=12;fontFamily=Helvetica;html=1;whiteSpace=wrap;fillColor=#bac8d3;strokeColor=#23445d;" parent="1" vertex="1">
          <mxGeometry x="500" y="313" width="160" height="60" as="geometry" />
        </mxCell>
        <mxCell id="WDYi7oCFt3PgykhrvLu6-4" value="&lt;p style=&quot;margin:0px;margin-top:4px;text-align:center;&quot;&gt;&lt;b&gt;UserInterestRepository&lt;/b&gt;&lt;/p&gt;" style="verticalAlign=top;align=left;overflow=fill;fontSize=12;fontFamily=Helvetica;html=1;whiteSpace=wrap;fillColor=#bac8d3;strokeColor=#23445d;" parent="1" vertex="1">
          <mxGeometry x="375" y="390" width="140" height="60" as="geometry" />
        </mxCell>
        <mxCell id="avfFTuaBObW6_8dbNeOo-1" value="" style="endArrow=classic;html=1;rounded=0;fontStyle=1;strokeWidth=2;strokeColor=#660000;fontSize=11;entryX=0;entryY=0.25;entryDx=0;entryDy=0;" edge="1" parent="1" target="Cp0hF8P1XbObhAQc_Zf8-23">
          <mxGeometry width="50" height="50" relative="1" as="geometry">
            <mxPoint x="60" y="190" as="sourcePoint" />
            <mxPoint x="110" y="150" as="targetPoint" />
          </mxGeometry>
        </mxCell>
        <mxCell id="avfFTuaBObW6_8dbNeOo-9" value="1" style="edgeLabel;html=1;align=center;verticalAlign=middle;resizable=0;points=[];fontSize=13;fontStyle=1" vertex="1" connectable="0" parent="avfFTuaBObW6_8dbNeOo-1">
          <mxGeometry x="-0.1198" relative="1" as="geometry">
            <mxPoint y="-2" as="offset" />
          </mxGeometry>
        </mxCell>
        <mxCell id="avfFTuaBObW6_8dbNeOo-2" value="Create user" style="text;html=1;align=center;verticalAlign=middle;resizable=0;points=[];autosize=1;strokeColor=none;fillColor=none;" vertex="1" parent="1">
          <mxGeometry x="91" y="159" width="90" height="30" as="geometry" />
        </mxCell>
        <mxCell id="avfFTuaBObW6_8dbNeOo-3" value="" style="shape=cylinder3;whiteSpace=wrap;html=1;boundedLbl=1;backgroundOutline=1;size=15;fillColor=#dae8fc;strokeColor=#6c8ebf;" vertex="1" parent="1">
          <mxGeometry x="415" y="490" width="60" height="80" as="geometry" />
        </mxCell>
      </root>
    </mxGraphModel>
  </diagram>
</mxfile>
